<mxfile host="65bd71144e">
    <diagram id="C5RBs43oDa-KdzZeNtuy" name="Page-1">
        <mxGraphModel dx="948" dy="413" grid="1" gridSize="10" guides="1" tooltips="1" connect="1" arrows="1" fold="1" page="1" pageScale="1" pageWidth="827" pageHeight="1169" math="0" shadow="0">
            <root>
                <mxCell id="WIyWlLk6GJQsqaUBKTNV-0"/>
                <mxCell id="WIyWlLk6GJQsqaUBKTNV-1" parent="WIyWlLk6GJQsqaUBKTNV-0"/>
                <mxCell id="MYcsY9ZzH5rtcqgnlL-w-8" value="" style="edgeStyle=orthogonalEdgeStyle;rounded=0;orthogonalLoop=1;jettySize=auto;html=1;" parent="WIyWlLk6GJQsqaUBKTNV-1" source="MYcsY9ZzH5rtcqgnlL-w-1" target="MYcsY9ZzH5rtcqgnlL-w-7" edge="1">
                    <mxGeometry relative="1" as="geometry"/>
                </mxCell>
                <mxCell id="MYcsY9ZzH5rtcqgnlL-w-1" value="process orderItem" style="rounded=0;whiteSpace=wrap;html=1;" parent="WIyWlLk6GJQsqaUBKTNV-1" vertex="1">
                    <mxGeometry x="230" y="540" width="120" height="60" as="geometry"/>
                </mxCell>
                <mxCell id="MYcsY9ZzH5rtcqgnlL-w-18" style="edgeStyle=orthogonalEdgeStyle;rounded=0;orthogonalLoop=1;jettySize=auto;html=1;entryX=0;entryY=0.5;entryDx=0;entryDy=0;" parent="WIyWlLk6GJQsqaUBKTNV-1" target="MYcsY9ZzH5rtcqgnlL-w-5" edge="1">
                    <mxGeometry relative="1" as="geometry">
                        <mxPoint x="68.00517915349292" y="390" as="sourcePoint"/>
                    </mxGeometry>
                </mxCell>
                <mxCell id="MYcsY9ZzH5rtcqgnlL-w-19" style="edgeStyle=orthogonalEdgeStyle;rounded=0;orthogonalLoop=1;jettySize=auto;html=1;entryX=0;entryY=0.25;entryDx=0;entryDy=0;" parent="WIyWlLk6GJQsqaUBKTNV-1" target="MYcsY9ZzH5rtcqgnlL-w-1" edge="1">
                    <mxGeometry relative="1" as="geometry">
                        <mxPoint x="68.00517915349292" y="390" as="sourcePoint"/>
                    </mxGeometry>
                </mxCell>
                <mxCell id="MYcsY9ZzH5rtcqgnlL-w-11" value="" style="edgeStyle=orthogonalEdgeStyle;rounded=0;orthogonalLoop=1;jettySize=auto;html=1;" parent="WIyWlLk6GJQsqaUBKTNV-1" source="MYcsY9ZzH5rtcqgnlL-w-5" target="MYcsY9ZzH5rtcqgnlL-w-7" edge="1">
                    <mxGeometry relative="1" as="geometry"/>
                </mxCell>
                <mxCell id="MYcsY9ZzH5rtcqgnlL-w-5" value="manage returns" style="rounded=0;whiteSpace=wrap;html=1;" parent="WIyWlLk6GJQsqaUBKTNV-1" vertex="1">
                    <mxGeometry x="230" y="190" width="120" height="60" as="geometry"/>
                </mxCell>
                <mxCell id="MYcsY9ZzH5rtcqgnlL-w-17" style="edgeStyle=orthogonalEdgeStyle;rounded=0;orthogonalLoop=1;jettySize=auto;html=1;" parent="WIyWlLk6GJQsqaUBKTNV-1" source="MYcsY9ZzH5rtcqgnlL-w-7" target="MYcsY9ZzH5rtcqgnlL-w-9" edge="1">
                    <mxGeometry relative="1" as="geometry"/>
                </mxCell>
                <mxCell id="MYcsY9ZzH5rtcqgnlL-w-7" value="generate packing list" style="rounded=1;whiteSpace=wrap;html=1;" parent="WIyWlLk6GJQsqaUBKTNV-1" vertex="1">
                    <mxGeometry x="230" y="360" width="120" height="60" as="geometry"/>
                </mxCell>
                <mxCell id="MYcsY9ZzH5rtcqgnlL-w-34" style="edgeStyle=orthogonalEdgeStyle;rounded=0;orthogonalLoop=1;jettySize=auto;html=1;entryX=0;entryY=0.5;entryDx=0;entryDy=0;" parent="WIyWlLk6GJQsqaUBKTNV-1" source="MYcsY9ZzH5rtcqgnlL-w-9" target="MYcsY9ZzH5rtcqgnlL-w-21" edge="1">
                    <mxGeometry relative="1" as="geometry"/>
                </mxCell>
                <mxCell id="MYcsY9ZzH5rtcqgnlL-w-9" value="" style="sketch=0;outlineConnect=0;fontColor=#232F3E;gradientColor=none;fillColor=#7AA116;strokeColor=none;dashed=0;verticalLabelPosition=bottom;verticalAlign=top;align=center;html=1;fontSize=12;fontStyle=0;aspect=fixed;pointerEvents=1;shape=mxgraph.aws4.iot_analytics_pipeline;" parent="WIyWlLk6GJQsqaUBKTNV-1" vertex="1">
                    <mxGeometry x="470" y="390" width="148.56" height="80" as="geometry"/>
                </mxCell>
                <mxCell id="MYcsY9ZzH5rtcqgnlL-w-10" value="message Queue" style="text;html=1;align=center;verticalAlign=middle;whiteSpace=wrap;rounded=0;" parent="WIyWlLk6GJQsqaUBKTNV-1" vertex="1">
                    <mxGeometry x="520" y="460" width="60" height="30" as="geometry"/>
                </mxCell>
                <mxCell id="MYcsY9ZzH5rtcqgnlL-w-16" value="generate new packing list for&amp;nbsp;&lt;div&gt;good product shipment&lt;/div&gt;&lt;div&gt;&lt;br&gt;&lt;/div&gt;&lt;div&gt;&lt;br&gt;&lt;/div&gt;" style="text;html=1;align=center;verticalAlign=middle;resizable=0;points=[];autosize=1;strokeColor=none;fillColor=none;" parent="WIyWlLk6GJQsqaUBKTNV-1" vertex="1">
                    <mxGeometry x="190" y="270" width="180" height="70" as="geometry"/>
                </mxCell>
                <mxCell id="MYcsY9ZzH5rtcqgnlL-w-20" value="Load Balancer" style="text;html=1;align=center;verticalAlign=middle;whiteSpace=wrap;rounded=0;" parent="WIyWlLk6GJQsqaUBKTNV-1" vertex="1">
                    <mxGeometry x="4" y="375" width="60" height="30" as="geometry"/>
                </mxCell>
                <mxCell id="MYcsY9ZzH5rtcqgnlL-w-28" style="edgeStyle=orthogonalEdgeStyle;rounded=0;orthogonalLoop=1;jettySize=auto;html=1;" parent="WIyWlLk6GJQsqaUBKTNV-1" source="MYcsY9ZzH5rtcqgnlL-w-21" target="MYcsY9ZzH5rtcqgnlL-w-22" edge="1">
                    <mxGeometry relative="1" as="geometry"/>
                </mxCell>
                <mxCell id="MYcsY9ZzH5rtcqgnlL-w-21" value="labeling shipments&lt;div&gt;per location&lt;/div&gt;" style="rounded=0;whiteSpace=wrap;html=1;" parent="WIyWlLk6GJQsqaUBKTNV-1" vertex="1">
                    <mxGeometry x="730" y="400" width="120" height="60" as="geometry"/>
                </mxCell>
                <mxCell id="MYcsY9ZzH5rtcqgnlL-w-24" value="" style="edgeStyle=orthogonalEdgeStyle;rounded=0;orthogonalLoop=1;jettySize=auto;html=1;" parent="WIyWlLk6GJQsqaUBKTNV-1" source="MYcsY9ZzH5rtcqgnlL-w-22" target="MYcsY9ZzH5rtcqgnlL-w-23" edge="1">
                    <mxGeometry relative="1" as="geometry"/>
                </mxCell>
                <mxCell id="MYcsY9ZzH5rtcqgnlL-w-33" style="edgeStyle=orthogonalEdgeStyle;rounded=0;orthogonalLoop=1;jettySize=auto;html=1;entryX=1;entryY=0.5;entryDx=0;entryDy=0;" parent="WIyWlLk6GJQsqaUBKTNV-1" source="MYcsY9ZzH5rtcqgnlL-w-22" target="MYcsY9ZzH5rtcqgnlL-w-29" edge="1">
                    <mxGeometry relative="1" as="geometry"/>
                </mxCell>
                <mxCell id="MYcsY9ZzH5rtcqgnlL-w-22" value="shipping orders" style="rounded=0;whiteSpace=wrap;html=1;" parent="WIyWlLk6GJQsqaUBKTNV-1" vertex="1">
                    <mxGeometry x="730" y="190" width="120" height="60" as="geometry"/>
                </mxCell>
                <mxCell id="MYcsY9ZzH5rtcqgnlL-w-23" value="Tracking system" style="whiteSpace=wrap;html=1;rounded=0;" parent="WIyWlLk6GJQsqaUBKTNV-1" vertex="1">
                    <mxGeometry x="940" y="280" width="120" height="60" as="geometry"/>
                </mxCell>
                <mxCell id="MYcsY9ZzH5rtcqgnlL-w-38" style="edgeStyle=orthogonalEdgeStyle;rounded=0;orthogonalLoop=1;jettySize=auto;html=1;entryX=0;entryY=0.5;entryDx=0;entryDy=0;" parent="WIyWlLk6GJQsqaUBKTNV-1" source="MYcsY9ZzH5rtcqgnlL-w-29" target="MYcsY9ZzH5rtcqgnlL-w-23" edge="1">
                    <mxGeometry relative="1" as="geometry">
                        <Array as="points">
                            <mxPoint x="570" y="310"/>
                        </Array>
                    </mxGeometry>
                </mxCell>
                <mxCell id="MYcsY9ZzH5rtcqgnlL-w-29" value="Notifying user" style="whiteSpace=wrap;html=1;rounded=0;" parent="WIyWlLk6GJQsqaUBKTNV-1" vertex="1">
                    <mxGeometry x="510" y="190" width="120" height="60" as="geometry"/>
                </mxCell>
                <mxCell id="MYcsY9ZzH5rtcqgnlL-w-36" value="&amp;nbsp;unique tracking id" style="text;html=1;align=center;verticalAlign=middle;whiteSpace=wrap;rounded=0;" parent="WIyWlLk6GJQsqaUBKTNV-1" vertex="1">
                    <mxGeometry x="570" y="140" width="210" height="75" as="geometry"/>
                </mxCell>
            </root>
        </mxGraphModel>
    </diagram>
</mxfile>